<?xml version="1.0" standalone="no"?>
<!DOCTYPE svg PUBLIC "-//W3C//DTD SVG 20010904//EN"
 "http://www.w3.org/TR/2001/REC-SVG-20010904/DTD/svg10.dtd">
<svg version="1.0" xmlns="http://www.w3.org/2000/svg"
 width="50.000000pt" height="50.000000pt" viewBox="0 0 50.000000 50.000000"
 preserveAspectRatio="xMidYMid meet">

<g transform="translate(0.000000,50.000000) scale(0.100000,-0.100000)"
fill="#000000" stroke="none">
<path d="M52 408 c-8 -8 -12 -54 -12 -140 0 -107 -2 -128 -15 -128 -20 0 -19
-24 1 -44 23 -24 425 -24 448 0 20 20 21 44 1 44 -13 0 -15 21 -15 128 0 86
-4 132 -12 140 -17 17 -379 17 -396 0z m383 -138 l0 -125 -185 0 -185 0 -3
114 c-1 63 0 121 2 128 4 11 43 13 188 11 l183 -3 0 -125z m20 -160 c-8 -14
-402 -14 -410 0 -4 7 67 10 205 10 138 0 209 -3 205 -10z"/>
<path d="M190 270 l0 -80 53 30 c87 51 84 49 67 60 -8 5 -39 23 -67 40 l-53
30 0 -80z m61 23 c16 -10 29 -20 29 -23 0 -6 -54 -40 -64 -40 -3 0 -6 18 -6
40 0 46 1 46 41 23z"/>
</g>
</svg>
